:SAMPLES-PER-SECOND 30
:FULLY-SPECIFIED
:DEGREES
1
root  2.67687 41.0085 -2.03316 178.159 -86.6812 -176.035
RightUpLeg  -0.550566 -8.03926 -6.95832
RightLeg  1.67061 0.172685 2.76227
RightFoot  -0.72011 -0.132006 1.38413
RightToes  -5.8209e-011 0 -3.6325e-017
Spine  -0.771535 0.0347581 0.831435
Spine1  1.80312 -0.120476 0.493869
HEad  -4.42586 0.475654 -0.239548
LeftShoulder1  0.871915 -0.896977 -12.8388
LeftArm  -14.1933 9.97624 -2.02997
LeftForeArm  10.5882 -3.03292 -3.05616
LeftHand  -0.244104 0.0205437 5.32207
RightShoulder  0.606019 -0.0420895 10.2425
RightArm  -20.2634 2.36521 0.823328
RightForeArm  5.16549 1.96904 3.341
RightHand  -0.632156 1.15961 -11.3264
LeftUpLeg  -0.417088 5.91428 4.33197
LeftLeg  2.16523 12.4276 -3.84424
LeftFoot  -3.1526 0.103142 -1.07905
LeftToes  1.76439e-010 -1.07097e-011 2.32476e-011
2
root  2.6804 41.0085 -2.03601 178.092 -86.6332 -175.966
RightUpLeg  -0.559947 -8.02186 -6.94012
RightLeg  1.64927 0.197966 2.75536
RightFoot  -0.708067 -0.13319 1.40249
RightToes  -5.8209e-011 0 -3.6325e-017
Spine  -0.771653 0.0365077 0.752803
Spine1  1.83582 -0.137833 0.59557
HEad  -4.37309 0.600944 -0.3138
LeftShoulder1  0.871915 -0.860306 -12.9383
LeftArm  -14.2998 9.95551 -2.0314
LeftForeArm  10.425 -2.94533 -3.01013
LeftHand  -0.244104 0.0205437 5.32207
RightShoulder  0.597318 -0.0713228 10.1258
RightArm  -20.3157 2.40547 0.938628
RightForeArm  5.26227 1.91219 3.3142
RightHand  -0.639114 1.20446 -11.3748
LeftUpLeg  -0.406054 5.92804 4.34585
LeftLeg  2.14154 12.4688 -3.84958
LeftFoot  -3.15263 0.10465 -1.10249
LeftToes  1.76439e-010 -1.07097e-011 2.32476e-011
3
root  2.68814 41.0085 -2.0413 177.758 -86.5429 -175.642
RightUpLeg  -0.561845 -7.9816 -6.89244
RightLeg  1.60381 0.24391 2.74237
RightFoot  -0.680307 -0.132697 1.39485
RightToes  -5.8209e-011 0 -3.6325e-017
Spine  -0.728012 0.0508274 0.669068
Spine1  1.84661 -0.14763 0.721419
HEad  -4.26266 0.688427 -0.403258
LeftShoulder1  0.871915 -0.803459 -13.0922
LeftArm  -14.411 9.89533 -2.04631
LeftForeArm  10.0978 -2.77447 -2.96418
LeftHand  -0.244104 0.0205437 5.32207
RightShoulder  0.580337 -0.142332 9.97271
RightArm  -20.435 2.49615 1.09754
RightForeArm  5.4096 1.75949 3.25718
RightHand  -0.653809 1.32144 -11.4396
LeftUpLeg  -0.388634 5.95643 4.38453
LeftLeg  2.13039 12.5301 -3.85244
LeftFoot  -3.15191 0.106614 -1.13302
LeftToes  1.76439e-010 -1.07097e-011 2.32476e-011
4
root  2.69767 41.0087 -2.04723 177.514 -86.4485 -175.422
RightUpLeg  -0.565879 -7.94531 -6.8496
RightLeg  1.58989 0.303991 2.72788
RightFoot  -0.659242 -0.12994 1.35207
RightToes  -5.8209e-011 0 -3.6325e-017
Spine  -0.63371 0.0784184 0.657121
Spine1  1.7879 -0.121558 0.734378
HEad  -4.12352 0.672337 -0.440156
LeftShoulder1  0.873765 -0.795658 -13.1618
LeftArm  -14.4019 9.85073 -2.07227
LeftForeArm  9.86731 -2.64208 -2.96804
LeftHand  -0.244104 0.0205437 5.32207
RightShoulder  0.570398 -0.194044 9.93833
RightArm  -20.5079 2.545 1.14854
RightForeArm  5.51817 1.61955 3.21547
RightHand  -0.662044 1.41148 -11.4273
LeftUpLeg  -0.360848 5.96524 4.41166
LeftLeg  2.12484 12.611 -3.83832
LeftFoot  -3.14473 0.108671 -1.16498
LeftToes  1.76439e-010 -1.07097e-011 2.32476e-011
5
root  2.70613 41.0089 -2.05379 177.636 -86.3722 -175.572
RightUpLeg  -0.580035 -7.92801 -6.83488
RightLeg  1.61819 0.371045 2.71254
RightFoot  -0.655533 -0.127842 1.31951
RightToes  -5.8209e-011 0 -3.6325e-017
Spine  -0.558745 0.100739 0.67602
Spine1  1.71919 -0.0821025 0.657644
HEad  -3.96836 0.6575 -0.45411
LeftShoulder1  0.882011 -0.845377 -13.1328
LeftArm  -14.3558 9.87272 -2.09216
LeftForeArm  9.84541 -2.61542 -2.98341
LeftHand  -0.244104 0.0205437 5.32207
RightShoulder  0.572593 -0.189227 9.9841
RightArm  -20.4966 2.50626 1.13473
RightForeArm  5.55964 1.60321 3.21026
RightHand  -0.659276 1.4093 -11.3804
LeftUpLeg  -0.324322 5.94177 4.40449
LeftLeg  2.10216 12.7101 -3.81141
LeftFoot  -3.1242 0.110601 -1.19498
LeftToes  1.76439e-010 -1.07097e-011 2.32476e-011
6
root  2.71209 41.0092 -2.06127 177.885 -86.3199 -175.846
RightUpLeg  -0.585242 -7.92492 -6.83529
RightLeg  1.64291 0.430506 2.70333
RightFoot  -0.657539 -0.127519 1.31672
RightToes  -5.8209e-011 0 -3.6325e-017
Spine  -0.563223 0.107061 0.653099
Spine1  1.73327 -0.0682742 0.62978
HEad  -3.81385 0.689976 -0.500859
LeftShoulder1  0.891333 -0.893605 -13.1246
LeftArm  -14.3987 9.92172 -2.09159
LeftForeArm  9.90592 -2.65677 -2.96261
LeftHand  -0.244104 0.0205437 5.32207
RightShoulder  0.572359 -0.183373 9.94226
RightArm  -20.4695 2.45287 1.20618
RightForeArm  5.50537 1.67042 3.22371
RightHand  -0.657915 1.37106 -11.4306
LeftUpLeg  -0.289572 5.91823 4.38959
LeftLeg  2.0788 12.7865 -3.78835
LeftFoot  -3.10657 0.111539 -1.20956
LeftToes  1.76439e-010 -1.07097e-011 2.32476e-011
7
root  2.71767 41.0095 -2.06957 177.89 -86.2928 -175.879
RightUpLeg  -0.568567 -7.92755 -6.82771
RightLeg  1.64079 0.466726 2.71024
RightFoot  -0.654569 -0.126429 1.30846
RightToes  -5.8209e-011 0 -3.6325e-017
Spine  -0.606203 0.106741 0.582416
Spine1  1.81506 -0.0834998 0.712055
HEad  -3.69989 0.729137 -0.573017
LeftShoulder1  0.895214 -0.895578 -13.1997
LeftArm  -14.4979 9.92497 -2.08394
LeftForeArm  9.94291 -2.69306 -2.92469
LeftHand  -0.244104 0.0205437 5.32207
RightShoulder  0.560893 -0.223948 9.79025
RightArm  -20.4422 2.45799 1.3397
RightForeArm  5.37272 1.69688 3.2431
RightHand  -0.663541 1.36056 -11.5424
LeftUpLeg  -0.265884 5.92538 4.40227
LeftLeg  2.0833 12.8033 -3.77999
LeftFoot  -3.10633 0.111473 -1.20853
LeftToes  1.76439e-010 -1.07097e-011 2.32476e-011
8
root  2.72681 41.0098 -2.0793 177.64 -86.294 -175.658
RightUpLeg  -0.547536 -7.92749 -6.80527
RightLeg  1.63553 0.466436 2.72787
RightFoot  -0.651045 -0.123438 1.27041
RightToes  -5.8209e-011 0 -3.6325e-017
Spine  -0.599447 0.10552 0.512367
Spine1  1.85339 -0.103784 0.81428
HEad  -3.65312 0.764412 -0.614469
LeftShoulder1  0.895929 -0.873637 -13.2676
LeftArm  -14.5374 9.89322 -2.09055
LeftForeArm  9.99106 -2.69438 -2.91158
LeftHand  -0.244104 0.0205437 5.32207
RightShoulder  0.553662 -0.249876 9.6946
RightArm  -20.3641 2.47075 1.35461
RightForeArm  5.27926 1.67365 3.27198
RightHand  -0.657343 1.31919 -11.5032
LeftUpLeg  -0.259395 5.9455 4.43694
LeftLeg  2.10761 12.7769 -3.77414
LeftFoot  -3.10668 0.111777 -1.21326
LeftToes  1.76439e-010 -1.07097e-011 2.32476e-011
